<?xml version="1.0" encoding="UTF-8" standalone="no"?>
<!DOCTYPE svg PUBLIC "-//W3C//DTD SVG 1.0//EN" "http://www.w3.org/TR/2001/REC-SVG-20010904/DTD/svg10.dtd">
<!-- Generated by Microsoft Visio 11.0, SVG Export, v1.0 figure1.svg Page-1 -->
<svg xmlns="http://www.w3.org/2000/svg" xmlns:xlink="http://www.w3.org/1999/xlink" xmlns:ev="http://www.w3.org/2001/xml-events"
		xmlns:v="http://schemas.microsoft.com/visio/2003/SVGExtensions/" width="6.02778in" height="4.00694in"
		viewBox="0 0 434 288.5" xml:space="preserve" color-interpolation-filters="sRGB" class="st11">
	<v:documentProperties v:langID="1033" v:viewMarkup="false"/>

	<style type="text/css">
	<![CDATA[
		.st1 {fill:#c3d7e8;stroke:#404040;stroke-linecap:round;stroke-linejoin:round;stroke-width:0.25}
		.st2 {fill:#000000;font-family:Calibri;font-size:0.833336em}
		.st3 {fill:#f6d5b9;stroke:#404040;stroke-linecap:round;stroke-linejoin:round;stroke-width:0.25}
		.st4 {fill:#e0e6cd;stroke:#404040;stroke-linecap:round;stroke-linejoin:round;stroke-width:0.25}
		.st5 {fill:#cfc8dd;stroke:#404040;stroke-linecap:round;stroke-linejoin:round;stroke-width:0.25}
		.st6 {stroke:#404040;stroke-dasharray:7,5,0,5,0,5;stroke-linecap:round;stroke-linejoin:round;stroke-width:1}
		.st7 {stroke:#d26d19;stroke-linecap:round;stroke-linejoin:round;stroke-width:2.25}
		.st8 {fill:#f2f2f2;stroke:#404040;stroke-linecap:round;stroke-linejoin:round;stroke-width:0.25}
		.st9 {stroke:#000000;stroke-linecap:round;stroke-linejoin:round;stroke-width:1}
		.st10 {fill:none;stroke:none;stroke-linecap:round;stroke-linejoin:round;stroke-width:0.25}
		.st11 {fill:none;fill-rule:evenodd;font-size:12;overflow:visible;stroke-linecap:square;stroke-miterlimit:3}
	]]>
	</style>

	<defs id="Patterns_And_Gradients">
		<linearGradient id="grad30-19" v:fillPattern="30" v:foreground="#f0f0f0" v:background="#ffffff" x1="0" y1="1" x2="0" y2="0">
			<stop offset="0" style="stop-color:#f0f0f0;stop-opacity:1"/>
			<stop offset="1" style="stop-color:#ffffff;stop-opacity:1"/>
		</linearGradient>
	</defs>
	<g v:mID="0" v:index="1" v:groupContext="foregroundPage">
		<title>Page-1</title>
		<v:pageProperties v:drawingScale="1" v:pageScale="1" v:drawingUnits="0" v:shadowOffsetX="9" v:shadowOffsetY="-9"/>
		<v:layer v:name="Connector" v:index="0"/>
		<g id="shape36-1" v:mID="36" v:groupContext="shape" transform="translate(337,-53.5833)">
			<title>Rounded rectangle.36</title>
			<desc>BDE</desc>
			<v:userDefs>
				<v:ud v:nameU="visVersion" v:val="VT0(14):26"/>
				<v:ud v:nameU="msvThemeColors" v:val="VT0(36):26"/>
				<v:ud v:nameU="msvThemeEffects" v:val="VT0(16):26"/>
			</v:userDefs>
			<v:textBlock v:margins="rect(0,0,0,14)" v:tabSpace="42.5197"/>
			<v:textRect cx="24" cy="251.167" width="48" height="74.6667"/>
			<path d="M33.83 288.5 A14.1733 14.1733 -180 0 0 48 274.33 L48 228.01 A14.1733 14.1733 -180 0 0 33.83 213.83 L14.17 213.83
						 A14.1733 14.1733 -180 0 0 0 228.01 L0 274.33 A14.1733 14.1733 -180 0 0 14.17 288.5 L33.83 288.5 Z"
					class="st1"/>
			<text x="14" y="254.17" class="st2" v:langID="1033"><v:paragraph/><v:tabList/>BDE</text>		</g>
		<g id="shape2-4" v:mID="2" v:groupContext="shape" transform="translate(109,-192.25)">
			<title>Rounded rectangle.2</title>
			<desc>SDK</desc>
			<v:userDefs>
				<v:ud v:nameU="visVersion" v:val="VT0(14):26"/>
				<v:ud v:nameU="msvThemeColors" v:val="VT0(36):26"/>
				<v:ud v:nameU="msvThemeEffects" v:val="VT0(16):26"/>
			</v:userDefs>
			<v:textBlock v:margins="rect(4,0,0,8)" v:tabSpace="42.5197" v:verticalAlign="0"/>
			<v:textRect cx="108" cy="267.167" width="216" height="42.6667"/>
			<path d="M201.83 288.5 A14.1733 14.1733 -180 0 0 216 274.33 L216 260.01 A14.1733 14.1733 -180 0 0 201.83 245.83 L14.17
						 245.83 A14.1733 14.1733 -180 0 0 -0 260.01 L0 274.33 A14.1733 14.1733 -180 0 0 14.17 288.5 L201.83 288.5
						 Z" class="st1"/>
			<text x="8" y="258.83" class="st2" v:langID="1033"><v:paragraph/><v:tabList/>SDK</text>		</g>
		<g id="shape3-7" v:mID="3" v:groupContext="shape" transform="translate(179.205,-192.25)">
			<title>Rounded rectangle</title>
			<desc>CNET</desc>
			<v:userDefs>
				<v:ud v:nameU="visVersion" v:val="VT0(14):26"/>
				<v:ud v:nameU="msvThemeColors" v:val="VT0(36):26"/>
				<v:ud v:nameU="msvThemeEffects" v:val="VT0(16):26"/>
			</v:userDefs>
			<v:textBlock v:margins="rect(0,0,0,22)" v:tabSpace="42.5197"/>
			<v:textRect cx="37.7953" cy="275.167" width="75.6" height="26.6667"/>
			<path d="M62.26 288.5 A13.3334 13.3334 -180 0 0 75.59 275.17 A13.3334 13.3334 -180 0 0 62.26 261.83 L13.33 261.83 A13.3334
						 13.3334 -180 0 0 -0 275.17 A13.3334 13.3334 -180 0 0 13.33 288.5 L62.26 288.5 Z" class="st3"/>
			<text x="22" y="278.17" class="st2" v:langID="1033"><v:paragraph/><v:tabList/>CNET</text>		</g>
		<g id="shape1-10" v:mID="1" v:groupContext="shape" transform="translate(49,-245.583)">
			<title>Rounded rectangle.1</title>
			<desc>User Apps</desc>
			<v:userDefs>
				<v:ud v:nameU="visVersion" v:val="VT0(14):26"/>
				<v:ud v:nameU="msvThemeColors" v:val="VT0(36):26"/>
				<v:ud v:nameU="msvThemeEffects" v:val="VT0(16):26"/>
			</v:userDefs>
			<v:textBlock v:margins="rect(0,0,0,142)" v:tabSpace="42.5197"/>
			<v:textRect cx="168" cy="267.167" width="336" height="42.6667"/>
			<path d="M321.83 288.5 A14.1733 14.1733 -180 0 0 336 274.33 L336 260.01 A14.1733 14.1733 -180 0 0 321.83 245.83 L14.17
						 245.83 A14.1733 14.1733 -180 0 0 -0 260.01 L0 274.33 A14.1733 14.1733 -180 0 0 14.17 288.5 L321.83 288.5
						 Z" class="st4"/>
			<text x="142" y="270.17" class="st2" v:langID="1033"><v:paragraph/><v:tabList/>User Apps</text>		</g>
		<g id="shape12-13" v:mID="12" v:groupContext="shape" transform="translate(49,-0.25)">
			<title>Rectangle</title>
			<desc>Switch</desc>
			<v:userDefs>
				<v:ud v:nameU="visVersion" v:val="VT0(14):26"/>
				<v:ud v:nameU="msvThemeColors" v:val="VT0(36):26"/>
				<v:ud v:nameU="msvThemeEffects" v:val="VT0(16):26"/>
			</v:userDefs>
			<v:textBlock v:margins="rect(4,0,0,4)" v:tabSpace="42.5197" v:verticalAlign="0"/>
			<v:textRect cx="168" cy="272.5" width="336" height="32"/>
			<rect x="0" y="256.5" width="336" height="32" class="st5"/>
			<text x="4" y="269.5" class="st2" v:langID="2052"><v:paragraph/><v:tabList/>Switch</text>		</g>
		<g id="shape19-16" v:mID="19" v:groupContext="shape" v:layerMember="0" transform="translate(433,-181.583) scale(-1,1)">
			<title>Line-curve connector</title>
			<v:userDefs>
				<v:ud v:nameU="AntiScale" v:val="VT0(1):26"/>
				<v:ud v:nameU="Scale" v:val="VT0(1):26"/>
				<v:ud v:nameU="visVersion" v:val="VT0(14):26"/>
				<v:ud v:nameU="msvThemeColors" v:val="VT0(36):26"/>
				<v:ud v:nameU="msvThemeEffects" v:val="VT0(16):26"/>
			</v:userDefs>
			<path d="M0 288.5 L71.33 288.5 L139.46 288.5 L204.38 288.5 L266.09 288.5 L324.6 288.5 L379.9 288.5 L432 288.5"
					class="st6"/>
		</g>
		<g id="shape6-21" v:mID="6" v:groupContext="shape" v:layerMember="0" transform="translate(433,-42.9167) scale(-1,1)">
			<title>Line-curve connector.6</title>
			<v:userDefs>
				<v:ud v:nameU="AntiScale" v:val="VT0(1):26"/>
				<v:ud v:nameU="Scale" v:val="VT0(1):26"/>
				<v:ud v:nameU="visVersion" v:val="VT0(14):26"/>
				<v:ud v:nameU="msvThemeColors" v:val="VT0(36):26"/>
				<v:ud v:nameU="msvThemeEffects" v:val="VT0(16):26"/>
			</v:userDefs>
			<path d="M0 288.5 L71.33 288.5 L139.46 288.5 L204.38 288.5 L266.09 288.5 L324.6 288.5 L379.9 288.5 L432 288.5"
					class="st6"/>
		</g>
		<g id="shape11-25" v:mID="11" v:groupContext="shape" v:layerMember="0" transform="translate(208,-218.917)">
			<title>Dynamic connector.11</title>
			<v:userDefs>
				<v:ud v:nameU="visVersion" v:val="VT0(14):26"/>
				<v:ud v:nameU="msvThemeColors" v:val="VT0(36):26"/>
				<v:ud v:nameU="msvThemeEffects" v:val="VT0(16):26"/>
			</v:userDefs>
			<path d="M9 288.5 L9 261.83" class="st7"/>
		</g>
		<g id="shape30-29" v:mID="30" v:groupContext="shape" transform="translate(109,-5.58333)">
			<title>Rectangle.30</title>
			<desc>CMIC</desc>
			<v:userDefs>
				<v:ud v:nameU="visVersion" v:val="VT0(14):26"/>
				<v:ud v:nameU="msvThemeColors" v:val="VT0(36):26"/>
				<v:ud v:nameU="msvThemeEffects" v:val="VT0(16):26"/>
			</v:userDefs>
			<v:textBlock v:margins="rect(0,0,0,92)" v:tabSpace="42.5197"/>
			<v:textRect cx="108" cy="277.833" width="216" height="21.3333"/>
			<rect x="0" y="267.167" width="216" height="21.3333" class="st8"/>
			<text x="92" y="280.83" class="st2" v:langID="2052"><v:paragraph/><v:tabList/>CMIC</text>		</g>
		<g id="shape32-32" v:mID="32" v:groupContext="shape" v:layerMember="0" transform="translate(361,-128.25)">
			<title>Dynamic connector.32</title>
			<v:userDefs>
				<v:ud v:nameU="visVersion" v:val="VT0(14):26"/>
				<v:ud v:nameU="msvThemeColors" v:val="VT0(36):26"/>
				<v:ud v:nameU="msvThemeEffects" v:val="VT0(16):26"/>
			</v:userDefs>
			<path d="M0 288.5 L0 203.17 L-36 203.17" class="st9"/>
		</g>
		<g id="shape31-36" v:mID="31" v:groupContext="shape" v:layerMember="0" transform="translate(352,-32.6944)">
			<title>Dynamic connector.31</title>
			<v:userDefs>
				<v:ud v:nameU="visVersion" v:val="VT0(14):26"/>
				<v:ud v:nameU="msvThemeColors" v:val="VT0(36):26"/>
				<v:ud v:nameU="msvThemeEffects" v:val="VT0(16):26"/>
			</v:userDefs>
			<path d="M9 288.5 L9 267.61" class="st9"/>
		</g>
		<g id="shape42-40" v:mID="42" v:groupContext="shape" transform="translate(1,-186.917)">
			<title>Rectangle.42</title>
			<desc>User Space</desc>
			<v:userDefs>
				<v:ud v:nameU="visVersion" v:val="VT0(14):26"/>
				<v:ud v:nameU="msvThemeColors" v:val="VT0(36):26"/>
				<v:ud v:nameU="msvThemeEffects" v:val="VT0(16):26"/>
			</v:userDefs>
			<v:textBlock v:margins="rect(0,0,0,0)" v:tabSpace="42.5197"/>
			<v:textRect cx="31.5" cy="283.167" width="63" height="10.6667"/>
			<rect x="0" y="277.833" width="63" height="10.6667" class="st10"/>
			<text x="0" y="286.17" class="st2" v:langID="1033"><v:paragraph/><v:tabList/>User Space</text>		</g>
		<g id="shape43-43" v:mID="43" v:groupContext="shape" transform="translate(1,-48.25)">
			<title>Rectangle.43</title>
			<desc>Kenel Space</desc>
			<v:userDefs>
				<v:ud v:nameU="visVersion" v:val="VT0(14):26"/>
				<v:ud v:nameU="msvThemeColors" v:val="VT0(36):26"/>
				<v:ud v:nameU="msvThemeEffects" v:val="VT0(16):26"/>
			</v:userDefs>
			<v:textBlock v:margins="rect(0,0,0,0)" v:tabSpace="42.5197"/>
			<v:textRect cx="31.5" cy="283.167" width="63" height="10.6667"/>
			<rect x="0" y="277.833" width="63" height="10.6667" class="st10"/>
			<text x="0" y="286.17" class="st2" v:langID="1033"><v:paragraph/><v:tabList/>Kenel Space</text>		</g>
		<g id="shape4-46" v:mID="4" v:groupContext="shape" v:layerMember="0" transform="translate(208,-26.9167)">
			<title>Dynamic connector.4</title>
			<v:userDefs>
				<v:ud v:nameU="visVersion" v:val="VT0(14):26"/>
				<v:ud v:nameU="msvThemeColors" v:val="VT0(36):26"/>
				<v:ud v:nameU="msvThemeEffects" v:val="VT0(16):26"/>
			</v:userDefs>
			<path d="M9 288.5 L9 123.17" class="st7"/>
		</g>
	</g>
</svg>
